{"title":"Tom and Jerry Movie - The Fast and the Furry (2005) DVDRip XviD ","uid":9146739,"size":1151236820,"categoryP":"video","categoryS":"movies","magnet":"?xt=urn:btih:1be9850daa0afaef63f8e30ff5b3786b2c850e34&amp;dn=Tom+and+Jerry+Movie+-+The+Fast+and+the+Furry+%282005%29+DVDRip+XviD+&amp;tr=udp%3A%2F%2Ftracker.openbittorrent.com%3A80&amp;tr=udp%3A%2F%2Fopen.demonii.com%3A1337&amp;tr=udp%3A%2F%2Ftracker.coppersurfer.tk%3A6969&amp;tr=udp%3A%2F%2Fexodus.desync.com%3A6969","seeders":24,"leechers":4,"uploader":"peaSoup","files":-1,"time":1383608453,"description":"Storyline\n\nAfter wrecking their house during a chase, Tom and Jerry enter a race around the world where the winner gets a new fancy house.                                      &lt;a href=&quot; http://imageshack.com/a/img833/7271/q7lm.jpg&quot; rel=&quot;nofollow&quot; target=&quot;_NEW&quot;&gt; http://imageshack.com/a/img833/7271/q7lm.jpg&lt;/a&gt;                                        &lt;a href=&quot; http://imageshack.com/a/img7/9463/0ojm.jpg&quot; rel=&quot;nofollow&quot; target=&quot;_NEW&quot;&gt; http://imageshack.com/a/img7/9463/0ojm.jpg&lt;/a&gt;                                          &lt;a href=&quot; http://imageshack.com/a/img585/1628/cybn.jpg&quot; rel=&quot;nofollow&quot; target=&quot;_NEW&quot;&gt; http://imageshack.com/a/img585/1628/cybn.jpg&lt;/a&gt;                                        &lt;a href=&quot; http://imageshack.com/a/img801/5425/ehbc.jpg&quot; rel=&quot;nofollow&quot; target=&quot;_NEW&quot;&gt; http://imageshack.com/a/img801/5425/ehbc.jpg&lt;/a&gt;                                        &lt;a href=&quot; http://imageshack.com/a/img189/8391/zlmm.jpg&quot; rel=&quot;nofollow&quot; target=&quot;_NEW&quot;&gt; http://imageshack.com/a/img189/8391/zlmm.jpg&lt;/a&gt;                                         Format                                   : AVI\nFormat/Info                              : Audio Video Interleave\nFormat profile                           : OpenDML\nFile size                                : 1.07 GiB\nDuration                                 : 1h 11mn\nOverall bit rate                         : 2 146 Kbps\nMovie name                               : Tom and Jerry Movie - The Fast and the Furry (2005) DVDRip XviD AC3 peaSoup\nWriting application                      : Lavf53.21.0\nOriginal source form/Name                : TOM_AND_JERRY_FAST_AND_FURRY\n\nVideo\nID                                       : 0\nFormat                                   : MPEG-4 Visual\nFormat profile                           : Advanced Simple@L5\nFormat settings, BVOP                    : 2\nFormat settings, QPel                    : No\nFormat settings, GMC                     : No warppoints\nFormat settings, Matrix                  : Default (H.263)\nMuxing mode                              : Packed bitstream\nCodec ID                                 : XVID\nCodec ID/Hint                            : XviD\nDuration                                 : 1h 11mn\nBit rate                                 : 1 940 Kbps\nWidth                                    : 720 pixels\nHeight                                   : 540 pixels\nDisplay aspect ratio                     : 4:3\nFrame rate                               : 25.000 fps\nColor space                              : YUV\nChroma subsampling                       : 4:2:0\nBit depth                                : 8 bits\nScan type                                : Progressive\nCompression mode                         : Lossy\nBits/(Pixel*Frame)                       : 0.200\nStream size                              : 993 MiB (90%)\nWriting library                          : XviD 1.2.1 (UTC 2008-12-04)\n\nAudio\nID                                       : 1\nFormat                                   : AC-3\nFormat/Info                              : Audio Coding 3\nFormat profile                           : Dolby Digital\nMode extension                           : CM (complete main)\nFormat settings, Endianness              : Big\nCodec ID                                 : 2000\nDuration                                 : 1h 11mn\nBit rate mode                            : Constant\nBit rate                                 : 192 Kbps\nChannel(s)                               : 2 channels\nChannel positions                        : Front: L R\nSampling rate                            : 48.0 KHz\nBit depth                                : 16 bits\nCompression mode                         : Lossy\nStream size                              : 98.2 MiB (9%)\nAlignment                                : Aligned on interleaves\nInterleave, duration                     : 32 ms (0.80 video frame)\n\n\n","torrent":{"xt":"urn:btih:1be9850daa0afaef63f8e30ff5b3786b2c850e34","amp;dn":"Tom+and+Jerry+Movie+-+The+Fast+and+the+Furry+%282005%29+DVDRip+XviD+","amp;tr":["udp%3A%2F%2Ftracker.openbittorrent.com%3A80","udp%3A%2F%2Fopen.demonii.com%3A1337","udp%3A%2F%2Ftracker.coppersurfer.tk%3A6969","udp%3A%2F%2Fexodus.desync.com%3A6969"],"infoHash":"1be9850daa0afaef63f8e30ff5b3786b2c850e34","infoHashBuffer":{"type":"Buffer","data":[27,233,133,13,170,10,250,239,99,248,227,15,245,179,120,107,44,133,14,52]},"announce":[],"urlList":[]}}